<!-- icon666.com - MILLIONS vector ICONS FREE --><svg id="Layer_1" enable-background="new 0 0 50 50" viewBox="0 0 50 50" xmlns="http://www.w3.org/2000/svg"><g fill="#263238"><path d="m46 13.545h-42c-1.105 0-2-.895-2-2v-2.545c0-1.105.895-2 2-2h42c1.105 0 2 .895 2 2v2.545c0 1.105-.895 2-2 2z" fill="#263238" style="fill: rgb(255, 255, 255);"></path><path d="m46 28.273h-42c-1.105 0-2-.895-2-2v-2.545c0-1.105.895-2 2-2h42c1.105 0 2 .895 2 2v2.545c0 1.104-.895 2-2 2z" fill="#263238" style="fill: rgb(255, 255, 255);"></path><path d="m46 43h-42c-1.105 0-2-.895-2-2v-2.545c0-1.105.895-2 2-2h42c1.105 0 2 .895 2 2v2.545c0 1.105-.895 2-2 2z" fill="#263238" style="fill: rgb(255, 255, 255);"></path></g></svg>